<svg xmlns="http://www.w3.org/2000/svg" width="66.934" height="60.971" viewBox="0 0 66.934 60.971"><defs><style>.a{fill:#fff;}</style></defs><path class="a" d="M7.119,16.149a8.233,8.233,0,0,0,1.625,4.878,9.505,9.505,0,0,0,4.326,3.234,10.52,10.52,0,0,0,5.57.5,9.965,9.965,0,0,0,4.936-2.4,8.571,8.571,0,0,0,2.638-4.5,8.056,8.056,0,0,0-.549-5.073,9.012,9.012,0,0,0-3.551-3.94,10.325,10.325,0,0,0-5.356-1.48A10.152,10.152,0,0,0,9.946,9.944,8.414,8.414,0,0,0,7.119,16.149ZM16.759,9.5a7.816,7.816,0,0,1,4.055,1.12A6.824,6.824,0,0,1,23.5,13.606a6.1,6.1,0,0,1,.415,3.841,6.488,6.488,0,0,1-2,3.4,7.546,7.546,0,0,1-3.737,1.819,7.965,7.965,0,0,1-4.217-.379,7.2,7.2,0,0,1-3.276-2.448,6.235,6.235,0,0,1-1.23-3.693,6.371,6.371,0,0,1,2.141-4.7A7.687,7.687,0,0,1,16.759,9.5Z" transform="translate(16.706 14.333)"/><path class="a" d="M57.132,9.815A34.591,34.591,0,0,0,40,1.471,36.519,36.519,0,0,0,20.66,3.2,32.991,32.991,0,0,0,5.64,14.431,28.584,28.584,0,0,0,0,31.367a28.091,28.091,0,0,0,.724,6.347.884.884,0,0,0,.04.176A29.689,29.689,0,0,0,8.988,52.165a34.138,34.138,0,0,0,15.066,8.461,36.637,36.637,0,0,0,17.7.28,34.413,34.413,0,0,0,15.38-7.979,30.465,30.465,0,0,0,7.255-9.889,27.98,27.98,0,0,0,0-23.33A30.464,30.464,0,0,0,57.132,9.82ZM11.458,11.323A32.173,32.173,0,0,1,27.394,3.565,33.965,33.965,0,0,1,45.375,5.178a30.684,30.684,0,0,1,13.968,10.44,26.585,26.585,0,0,1,5.246,15.748,26.146,26.146,0,0,1-.851,6.62,7.466,7.466,0,0,0-4.82,1.991,5.222,5.222,0,0,0-1.8,3.783,3.277,3.277,0,0,1-1.756,2.909,7.21,7.21,0,0,1-3.294.552,12.53,12.53,0,0,0-4.746.806,9.69,9.69,0,0,0-3,2.593c-.936,1.061-1.9,2.159-3.015,2.417-.935.218-2.213-.27-3.565-.786a12.236,12.236,0,0,0-4.278-1.065A12.213,12.213,0,0,0,29.2,52.248c-1.377.522-2.63,1-3.565.786-1.11-.258-2.08-1.356-3.015-2.417a9.714,9.714,0,0,0-3-2.593,12.548,12.548,0,0,0-4.746-.805,7.26,7.26,0,0,1-3.294-.552c-1.661-1.149-1.755-1.866-1.9-2.953a6.007,6.007,0,0,0-1.6-3.661,11.122,11.122,0,0,0-5.2-3.375A26.2,26.2,0,0,1,4.7,20.513,28.155,28.155,0,0,1,11.458,11.323ZM55.476,51.415a31.969,31.969,0,0,1-13.808,7.292,34.092,34.092,0,0,1-15.96.106A32.072,32.072,0,0,1,11.786,51.7,28.02,28.02,0,0,1,3.557,39.248,9.436,9.436,0,0,1,6.265,41.4a4.044,4.044,0,0,1,1.088,2.571c.168,1.264.358,2.7,2.809,4.39,1.231.852,2.95.919,4.612.983a10.659,10.659,0,0,1,3.79.578,8.085,8.085,0,0,1,2.228,2.026c1.122,1.272,2.395,2.712,4.261,3.147,1.7.394,3.4-.251,5.05-.886a10.531,10.531,0,0,1,3.362-.895,10.483,10.483,0,0,1,3.364.9,11.38,11.38,0,0,0,3.972,1,4.7,4.7,0,0,0,1.078-.125c1.866-.435,3.139-1.882,4.26-3.147a8.1,8.1,0,0,1,2.23-2.026,10.659,10.659,0,0,1,3.79-.578c1.662-.064,3.381-.132,4.612-.983a5.271,5.271,0,0,0,2.687-4.4,3.223,3.223,0,0,1,1.138-2.49,5.051,5.051,0,0,1,2.46-1.266A27.948,27.948,0,0,1,55.476,51.415Z" transform="translate(0 -0.885)"/><path class="a" d="M14.431,10.91a6,6,0,0,0,4.152.868,5.663,5.663,0,0,0,3.611-2.058.993.993,0,0,0,.2-.8,1.06,1.06,0,0,0-.475-.692,1.262,1.262,0,0,0-.873-.183,1.191,1.191,0,0,0-.759.433,3.282,3.282,0,0,1-2.092,1.192,3.479,3.479,0,0,1-2.405-.5,1.261,1.261,0,0,0-.873-.183,1.189,1.189,0,0,0-.759.433.993.993,0,0,0-.2.8A1.059,1.059,0,0,0,14.431,10.91Z" transform="translate(32.71 15.893)"/><path class="a" d="M15.1,13.559a1.228,1.228,0,0,0-.417-.171,1.276,1.276,0,0,0-.457-.012,1.239,1.239,0,0,0-.427.148,1.13,1.13,0,0,0-.332.285A3.279,3.279,0,0,1,11.377,15a3.477,3.477,0,0,1-2.406-.5,1.262,1.262,0,0,0-.873-.183,1.188,1.188,0,0,0-.759.433.993.993,0,0,0-.2.8,1.059,1.059,0,0,0,.476.692,6,6,0,0,0,4.153.869,5.661,5.661,0,0,0,3.612-2.059,1.023,1.023,0,0,0,.187-.38.973.973,0,0,0,.013-.416,1.012,1.012,0,0,0-.163-.389A1.116,1.116,0,0,0,15.1,13.559Z" transform="translate(16.711 28.394)"/><path class="a" d="M14.383,11.561a1.262,1.262,0,0,0-.462.109,1.16,1.16,0,0,0-.375.269,1.038,1.038,0,0,0-.227.383.971.971,0,0,0-.04.433,1,1,0,0,0,.153.412,1.11,1.11,0,0,0,.321.322,1.228,1.228,0,0,0,.436.178,1.279,1.279,0,0,0,.477,0,3.461,3.461,0,0,1,2.378.6,2.889,2.889,0,0,1,1.215,1.957,1.04,1.04,0,0,0,.386.669,1.239,1.239,0,0,0,.775.268,1.355,1.355,0,0,0,.138-.008,1.246,1.246,0,0,0,.434-.13,1.147,1.147,0,0,0,.346-.271,1.036,1.036,0,0,0,.206-.371.974.974,0,0,0,.034-.415,4.991,4.991,0,0,0-2.1-3.371A5.974,5.974,0,0,0,14.383,11.561Z" transform="translate(31.141 24.085)"/><path class="a" d="M13.3,16.916a2.692,2.692,0,0,1,.222-1.129,2.9,2.9,0,0,1,.683-.964,1.06,1.06,0,0,0,.247-.35.978.978,0,0,0-.016-.816,1.071,1.071,0,0,0-.261-.342,1.19,1.19,0,0,0-.384-.225,1.279,1.279,0,0,0-.9.015,1.187,1.187,0,0,0-.375.238,4.756,4.756,0,0,0,.138,7.168,1.179,1.179,0,0,0,.385.236,1.278,1.278,0,0,0,.91,0,1.182,1.182,0,0,0,.382-.24,1.059,1.059,0,0,0,.25-.356.978.978,0,0,0-.028-.828,1.068,1.068,0,0,0-.273-.342,2.937,2.937,0,0,1-.717-.942A2.708,2.708,0,0,1,13.3,16.916Z" transform="translate(25.71 27.589)"/><path class="a" d="M7.349,13.13a1,1,0,0,0-.029-1.508,1.254,1.254,0,0,0-1.655.026,4.762,4.762,0,0,0,.138,7.17,1.256,1.256,0,0,0,1.659-.027,1,1,0,0,0-.03-1.511,2.758,2.758,0,0,1-.083-4.151Z" transform="translate(9.634 23.613)"/><path class="a" d="M5.922,15.235a1.3,1.3,0,0,0,.255.025,1.24,1.24,0,0,0,.781-.273,1.037,1.037,0,0,0,.382-.678,1,1,0,0,0-.213-.737,1.184,1.184,0,0,0-.7-.42,3.242,3.242,0,0,1-2.021-1.29,2.724,2.724,0,0,1-.431-2.213A.974.974,0,0,0,4,9.226a1.009,1.009,0,0,0-.161-.4,1.115,1.115,0,0,0-.318-.309A1.23,1.23,0,0,0,3.1,8.348a1.282,1.282,0,0,0-.465-.008A1.237,1.237,0,0,0,2.2,8.5a1.125,1.125,0,0,0-.33.3,1.016,1.016,0,0,0-.177.392,4.7,4.7,0,0,0,.742,3.82A5.6,5.6,0,0,0,5.922,15.235Z" transform="translate(3.666 16.569)"/><path class="a" d="M4.39,11.254a1.156,1.156,0,0,0,.146-.009,5.716,5.716,0,0,0,3.7-1.921,4.753,4.753,0,0,0,1.13-3.741,1,1,0,0,0-.136-.405,1.1,1.1,0,0,0-.3-.325A1.215,1.215,0,0,0,8.52,4.66a1.282,1.282,0,0,0-.464-.032,1.251,1.251,0,0,0-.441.135,1.143,1.143,0,0,0-.348.281,1.028,1.028,0,0,0-.2.382.974.974,0,0,0-.021.423A2.755,2.755,0,0,1,6.39,8.017,3.313,3.313,0,0,1,4.246,9.13a1.207,1.207,0,0,0-.759.375,1.006,1.006,0,0,0-.271.747,1.029,1.029,0,0,0,.365.713,1.235,1.235,0,0,0,.8.291Z" transform="translate(7.542 7.88)"/><path class="a" d="M24.755,16.038a.517.517,0,0,0-.357-.083.492.492,0,0,0-.318.171c-1.734,2.1-8.938,5.168-11.678,5.278a.507.507,0,0,0-.338.135.412.412,0,0,0,.015.621.509.509,0,0,0,.344.122h.022c2.789-.112,10.345-3.136,12.405-5.628a.425.425,0,0,0,.082-.155.406.406,0,0,0,.011-.171.419.419,0,0,0-.062-.162A.453.453,0,0,0,24.755,16.038Z" transform="translate(27.997 34.469)"/><path class="a" d="M17.061,12.071a1.263,1.263,0,0,0,.552-.126,1.138,1.138,0,0,0,.421-.348,1.008,1.008,0,0,0,.191-.488.978.978,0,0,0-.084-.512,2.7,2.7,0,0,1,0-2.248,3.1,3.1,0,0,1,1.743-1.591,1.117,1.117,0,0,0,.608-.579.978.978,0,0,0-.006-.8,1.121,1.121,0,0,0-.617-.571,1.277,1.277,0,0,0-.88-.018,5.348,5.348,0,0,0-3.008,2.747,4.659,4.659,0,0,0,0,3.88,1.1,1.1,0,0,0,.431.478A1.254,1.254,0,0,0,17.061,12.071Z" transform="translate(36.51 8.11)"/><path class="a" d="M8.362,6.18a3.482,3.482,0,0,1,2.412.487,2.929,2.929,0,0,1,1.329,1.9,1.063,1.063,0,0,0,.484.687,1.263,1.263,0,0,0,.876.174,1.187,1.187,0,0,0,.755-.441.992.992,0,0,0,.192-.8,5.05,5.05,0,0,0-2.294-3.271,6,6,0,0,0-4.161-.836,1.241,1.241,0,0,0-.425.152,1.131,1.131,0,0,0-.329.289,1.021,1.021,0,0,0-.183.381.973.973,0,0,0-.009.416,1.013,1.013,0,0,0,.167.387,1.119,1.119,0,0,0,.317.3,1.232,1.232,0,0,0,.419.167,1.283,1.283,0,0,0,.457.008Z" transform="translate(16.401 6.432)"/><path class="a" d="M7.108,12.939a1.245,1.245,0,0,0,.368-.055,1.2,1.2,0,0,0,.4-.205,1.087,1.087,0,0,0,.281-.328.994.994,0,0,0,.122-.4.977.977,0,0,0-.056-.413A2.7,2.7,0,0,1,8.4,9.294a3.156,3.156,0,0,1,1.868-1.47,1.146,1.146,0,0,0,.678-.534.981.981,0,0,0,.065-.814,1.1,1.1,0,0,0-.586-.618A1.276,1.276,0,0,0,9.529,5.8,5.453,5.453,0,0,0,6.308,8.338,4.667,4.667,0,0,0,6,12.208a1.078,1.078,0,0,0,.426.529A1.25,1.25,0,0,0,7.108,12.939Z" transform="translate(13.412 10.52)"/><path class="a" d="M14.228,9.463a1.265,1.265,0,0,0,1.142-.191,1.049,1.049,0,0,0,.4-.637.986.986,0,0,0-.147-.721A1.153,1.153,0,0,0,15,7.449a3.309,3.309,0,0,1-1.085-.581,2.983,2.983,0,0,1-.758-.915,2.734,2.734,0,0,1-.315-1.11,2.694,2.694,0,0,1,.175-1.136.978.978,0,0,0,0-.853A1.072,1.072,0,0,0,12.74,2.5a1.192,1.192,0,0,0-.41-.225,1.277,1.277,0,0,0-.474-.057,1.256,1.256,0,0,0-.46.121,1.152,1.152,0,0,0-.368.278A1.032,1.032,0,0,0,10.813,3a4.656,4.656,0,0,0-.3,1.96,4.713,4.713,0,0,0,.545,1.916,5.138,5.138,0,0,0,1.308,1.58,5.706,5.706,0,0,0,1.872,1Z" transform="translate(24.644 2.233)"/><path class="a" d="M11.628,6.8a1.03,1.03,0,0,0,.2.372,1.144,1.144,0,0,0,.345.273,1.249,1.249,0,0,0,.433.131,1.282,1.282,0,0,0,.456-.03,3.508,3.508,0,0,1,2.449.28A3,3,0,0,1,17.032,9.6a1.068,1.068,0,0,0,.419.565,1.247,1.247,0,0,0,.709.219,1.316,1.316,0,0,0,.31-.038,1.164,1.164,0,0,0,.707-.5.984.984,0,0,0,.112-.81,4.907,4.907,0,0,0-.973-1.769,5.452,5.452,0,0,0-1.642-1.3,5.945,5.945,0,0,0-2.061-.624,6.094,6.094,0,0,0-2.167.142,1.162,1.162,0,0,0-.706.5A.983.983,0,0,0,11.628,6.8Z" transform="translate(27.189 9.506)"/><path class="a" d="M17.228,9.5a1.161,1.161,0,0,0-.708.5.983.983,0,0,0-.111.81,1.086,1.086,0,0,0,.55.645,1.272,1.272,0,0,0,.889.1,3.526,3.526,0,0,1,1.255-.083,3.443,3.443,0,0,1,1.195.361,3.153,3.153,0,0,1,.951.751,2.84,2.84,0,0,1,.563,1.026,1.068,1.068,0,0,0,.419.565,1.247,1.247,0,0,0,.709.219,1.331,1.331,0,0,0,.311-.037,1.161,1.161,0,0,0,.706-.5.984.984,0,0,0,.111-.81,5.171,5.171,0,0,0-2.614-3.064A6.05,6.05,0,0,0,17.228,9.5Z" transform="translate(38.409 18.906)"/><path class="a" d="M4.957,8.969a1.159,1.159,0,0,0-.7.5.983.983,0,0,0-.108.805,1.087,1.087,0,0,0,.545.641,1.272,1.272,0,0,0,.883.106,3.531,3.531,0,0,1,1.256-.082,3.447,3.447,0,0,1,1.194.362,3.159,3.159,0,0,1,.951.751,2.844,2.844,0,0,1,.563,1.025,1.032,1.032,0,0,0,.2.375,1.146,1.146,0,0,0,.346.276,1.255,1.255,0,0,0,.436.134,1.28,1.28,0,0,0,.458-.03,1.222,1.222,0,0,0,.411-.188,1.1,1.1,0,0,0,.3-.318,1,1,0,0,0,.142-.4.975.975,0,0,0-.037-.417A5.173,5.173,0,0,0,9.185,9.452,6.053,6.053,0,0,0,4.957,8.969Z" transform="translate(9.641 17.663)"/></svg>