<svg xmlns="http://www.w3.org/2000/svg" width="66.934" height="60.962" viewBox="0 0 66.934 60.962"><defs><style>.a{fill:#fff;}</style></defs><path class="a" d="M15.6,18.3a.85.85,0,0,0,.34-1.224,3.149,3.149,0,0,1-.606-2.085,2.852,2.852,0,0,1,.467-1.176,5.58,5.58,0,0,0,.665-1.524,5.6,5.6,0,0,0-.543-3.828,1.02,1.02,0,0,0-1.292-.459.864.864,0,0,0-.5,1.177,4.014,4.014,0,0,1,.427,2.714,4,4,0,0,1-.488,1.089A4.45,4.45,0,0,0,13.38,14.8a4.756,4.756,0,0,0,.871,3.191A1.037,1.037,0,0,0,15.6,18.3Zm40.368,5.688a.849.849,0,0,0,.34-1.224,3.149,3.149,0,0,1-.605-2.085,2.856,2.856,0,0,1,.467-1.176,5.581,5.581,0,0,0,.665-1.524,5.6,5.6,0,0,0-.543-3.828,1.02,1.02,0,0,0-1.292-.459.864.864,0,0,0-.5,1.177,4.013,4.013,0,0,1,.427,2.714,4,4,0,0,1-.489,1.089,4.456,4.456,0,0,0-.681,1.816,4.757,4.757,0,0,0,.871,3.191A1.038,1.038,0,0,0,55.964,23.992Zm4.553,9.94a.85.85,0,0,0,.34-1.225,3.149,3.149,0,0,1-.605-2.085,2.856,2.856,0,0,1,.467-1.176,5.1,5.1,0,0,0,.122-5.352,1.02,1.02,0,0,0-1.292-.459.864.864,0,0,0-.5,1.177,4.012,4.012,0,0,1,.426,2.715,4,4,0,0,1-.488,1.089,4.445,4.445,0,0,0-.681,1.816,4.757,4.757,0,0,0,.871,3.191A1.038,1.038,0,0,0,60.517,33.931Zm-50.8-22.7a.85.85,0,0,0,.34-1.224,3.149,3.149,0,0,1-.606-2.085,2.855,2.855,0,0,1,.467-1.176,5.579,5.579,0,0,0,.665-1.524A5.6,5.6,0,0,0,10.036,1.4,1.02,1.02,0,0,0,8.744.936a.864.864,0,0,0-.5,1.177,4.014,4.014,0,0,1,.427,2.714,4,4,0,0,1-.488,1.089A4.45,4.45,0,0,0,7.5,7.733a4.756,4.756,0,0,0,.871,3.191A1.038,1.038,0,0,0,9.712,11.233ZM54.088,45.046a10.184,10.184,0,0,0-4.776-1.721c-.845-.147-1.472-.22-2.176-.321a10.641,10.641,0,0,1-4.769-1.539,4.465,4.465,0,0,1-1.707-2.6,1.589,1.589,0,0,0-1.471-1.072,1.637,1.637,0,0,0-1.6.908,8.216,8.216,0,0,0-.225,7.145c1.089,2.211,3.267,3.74,6.3,4.422a16.3,16.3,0,0,0,3.549.378,15.726,15.726,0,0,0,3.389-.348c2.725-.621,4.275-1.54,4.607-2.732C55.369,46.977,55.307,46.065,54.088,45.046Zm-.783,2.076c-.074.263-.833.9-3.183,1.438a14.457,14.457,0,0,1-5.992-.031,7.04,7.04,0,0,1-4.981-3.419,6.25,6.25,0,0,1-.071-4.962,5.614,5.614,0,0,0,2.048,2.7,12.392,12.392,0,0,0,5.7,1.92c.708.1,2.115.312,2.115.312a8.692,8.692,0,0,1,3.818,1.282C53.214,46.74,53.337,47.008,53.305,47.123ZM66.721,53a1.406,1.406,0,0,0-1.162-.582h-6.1a7.711,7.711,0,0,0,2.053-4.623,8.224,8.224,0,0,0-2.3-5.717,1.046,1.046,0,0,0-1.375-.161.841.841,0,0,0-.176,1.253,6.62,6.62,0,0,1,1.893,4.539,7.034,7.034,0,0,1-2.728,4.709H25.2a.9.9,0,1,0,0,1.786H64.633l-2.224,4.29a3.017,3.017,0,0,1-2.689,1.544H7.215a3.017,3.017,0,0,1-2.689-1.544L2.3,54.2H20.62a.9.9,0,1,0,0-1.786H14.707a6.975,6.975,0,0,1-.72-8.143,9.261,9.261,0,0,0,1.322,1.495,10.341,10.341,0,0,0,7,2.642h.071a10.325,10.325,0,0,0,7.033-2.734,8.57,8.57,0,0,0,2.808-6.32A8.661,8.661,0,0,0,29,32.738c6.852-2.021,14.613.913,19.454,3.687a65.946,65.946,0,0,1,6.14,3.92,1.049,1.049,0,0,0,1.382-.11.839.839,0,0,0-.121-1.258,43.19,43.19,0,0,0-3.784-2.555,8.517,8.517,0,0,0-2.5-8.723,10.342,10.342,0,0,0-6.316-2.663,12.5,12.5,0,0,1-6.7-2.444l-2.874-2.163a4.61,4.61,0,0,0-3.237-.885l-.969-.883a3.145,3.145,0,0,0-.725-4.073,3.941,3.941,0,0,0-5,.033,3.31,3.31,0,0,0-.977,1.423,3.717,3.717,0,0,0-1.562.89,3.131,3.131,0,0,0-.035,4.556,3.957,3.957,0,0,0,4.472.66l.973.886a3.719,3.719,0,0,0,.966,2.943l2.5,2.757a10.393,10.393,0,0,1,1.258,1.7,23.845,23.845,0,0,0-4.317,1.02,10.617,10.617,0,0,0-3.973-1.063,12.5,12.5,0,0,1-6.7-2.443l-2.875-2.164a4.611,4.611,0,0,0-3.237-.884l-.968-.883a3.146,3.146,0,0,0-.724-4.074,3.943,3.943,0,0,0-5,.033A3.311,3.311,0,0,0,2.563,21.4,3.731,3.731,0,0,0,1,22.291a3.131,3.131,0,0,0-.035,4.556,3.957,3.957,0,0,0,4.473.66l.969.882a3.692,3.692,0,0,0,.971,2.948l2.5,2.756A9.629,9.629,0,0,1,12.425,39.9a8.316,8.316,0,0,0,.507,2.38,9.762,9.762,0,0,0-1.8,6.792,8.72,8.72,0,0,0,1.253,3.341h-11A1.406,1.406,0,0,0,.214,53a1.147,1.147,0,0,0-.082,1.2l2.62,5.056a5.009,5.009,0,0,0,4.462,2.568h52.5a5.009,5.009,0,0,0,4.463-2.568L66.8,54.2A1.147,1.147,0,0,0,66.721,53ZM27.858,20.679a4.082,4.082,0,0,0-.482.522l-.581-.53a1.666,1.666,0,0,0-1.967-.16,1.839,1.839,0,0,1-2.214-.233,1.455,1.455,0,0,1,.018-2.118,1.733,1.733,0,0,1,.806-.435,1.577,1.577,0,0,0,1.18-1.074,1.525,1.525,0,0,1,.478-.735,1.831,1.831,0,0,1,2.323-.015,1.46,1.46,0,0,1,.255,2.017,1.318,1.318,0,0,0,.179,1.794l.579.528A4.329,4.329,0,0,0,27.858,20.679Zm1.236,4.162a2.017,2.017,0,0,1,.15-2.9,2.431,2.431,0,0,1,1.059-.558,1.051,1.051,0,0,0,.1-.025,2.531,2.531,0,0,1,2.021.446L35.3,23.968a14.557,14.557,0,0,0,7.809,2.848,8.293,8.293,0,0,1,5.065,2.136,6.863,6.863,0,0,1,2.149,6.434c-3.713-2.158-9.566-5.546-16.9-5.149A12.03,12.03,0,0,0,31.594,27.6Zm-21.441,1.2a4.127,4.127,0,0,0-.482.522l-.581-.53a1.666,1.666,0,0,0-1.968-.16,1.839,1.839,0,0,1-2.214-.233,1.455,1.455,0,0,1,.017-2.117,1.741,1.741,0,0,1,.807-.436A1.577,1.577,0,0,0,4.41,22.01a1.529,1.529,0,0,1,.478-.736,1.832,1.832,0,0,1,2.324-.015,1.461,1.461,0,0,1,.254,2.017,1.32,1.32,0,0,0,.179,1.794l.579.528A4.337,4.337,0,0,0,7.653,26.037Zm3.737,6.917L8.888,30.2a2.01,2.01,0,0,1,.151-2.9,2.537,2.537,0,0,1,3.182-.137L15.1,29.327a14.556,14.556,0,0,0,7.809,2.848A8.292,8.292,0,0,1,27.97,34.31a6.772,6.772,0,0,1,.04,10.122,8.282,8.282,0,0,1-5.641,2.193h-.057A8.293,8.293,0,0,1,16.7,44.505h0a6.946,6.946,0,0,1-2.313-4.7A11.341,11.341,0,0,0,11.389,32.954Z" transform="translate(0 -0.861)"/></svg>