<svg xmlns="http://www.w3.org/2000/svg" xmlns:xlink="http://www.w3.org/1999/xlink" width="60" height="60" viewBox="0 0 60 60"><defs><style>.a{fill:#fff;}.b{clip-path:url(#a);}</style><clipPath id="a"><rect class="a" width="60" height="60" transform="translate(-0.053 0.376)"/></clipPath></defs><g class="b" transform="translate(0.053 -0.376)"><path class="a" d="M59.021,10.04H50.236V1.506a1.276,1.276,0,1,0-2.51,0V10.04C40.2,5.02,35.176,5.02,33.67,6.526,24.382,15.813,1.039,50.954,1.039,50.954c-1,2.008-1.757,6.526,0,8.283s6.526,1,7.781,0c0,0,36.4-22.841,45.683-32.128C56.009,25.6,56.26,20.08,51.24,12.55h7.781A1.186,1.186,0,0,0,60.276,11.3,1.186,1.186,0,0,0,59.021,10.04ZM49.985,25.351c-.251.251-1,1-1,.753l-4.267-4.267a1.242,1.242,0,0,0-1.757,1.757l4.016,4.016c-4.016,3.012-6.275,4.267-10.542,7.279l-2.51-2.51a1.242,1.242,0,0,0-1.757,1.757l2.008,2.008c-2.761,1.757-6.024,4.016-9.538,6.526l-1.506-1.506a1.242,1.242,0,0,0-1.757,1.757l1.255,1.255C15.346,49.2,8.569,54.468,8.569,54.468c-1,1-3.263,2.008-4.016,1.255-.5-.5.251-2.761,1.255-4.016,0,0,12.3-13.805,16.315-20.582l1.255,1.255a1.242,1.242,0,1,0,1.757-1.757l-1.757-1.757c3.012-4.267,4.016-6.526,7.028-10.793l3.514,3.514a1.242,1.242,0,1,0,1.757-1.757l-3.765-3.765a43.9,43.9,0,0,1,4.016-5.02s4.518-1,9.789,4.267S49.985,25.351,49.985,25.351Z" transform="translate(-0.035)"/></g></svg>