<svg xmlns="http://www.w3.org/2000/svg" width="66.934" height="60.966" viewBox="0 0 66.934 60.966"><defs><style>.a{fill:#fff;}</style></defs><path class="a" d="M11.217,9.851v.08A.162.162,0,0,0,11.217,9.851Zm0,0v.08A.162.162,0,0,0,11.217,9.851Z" transform="translate(26.324 20.047)"/><path class="a" d="M65.416,30.815a14.165,14.165,0,0,0,.193-2.345,14.847,14.847,0,0,0-2.947-8.752,17.135,17.135,0,0,0-7.775-5.8,18.962,18.962,0,0,0-10-.91A17.978,17.978,0,0,0,36,17.292a18.641,18.641,0,0,0-6.4-1.1,19,19,0,0,0-4,.422L19.276,1.641V1.588a1.25,1.25,0,0,0-.713-.6,1.4,1.4,0,0,0-.968.025,1.231,1.231,0,0,0-.675.633,1.076,1.076,0,0,0,0,.882l7.009,14.526a.431.431,0,0,0-.109-.176L10.021,1.4,9.989,1.36a1.283,1.283,0,0,0-.4-.277A1.389,1.389,0,0,0,9.1.965a1.405,1.405,0,0,0-.5.061,1.322,1.322,0,0,0-.434.23,1.137,1.137,0,0,0-.433.807,1.077,1.077,0,0,0,.067.454,1.154,1.154,0,0,0,.253.4L22.352,17.632a17.954,17.954,0,0,0-1.828.873A18.334,18.334,0,0,0,9.73,21.964a15.587,15.587,0,0,0-6.042,8.851H0v1.172a21.58,21.58,0,0,0,5.211,13.93,25.372,25.372,0,0,0,13.453,8.151v3.124c0,2.72,1.287,4.689,3.128,4.689h23.35c1.815,0,3.128-1.97,3.128-4.689V54.069a25.371,25.371,0,0,0,13.453-8.151,21.579,21.579,0,0,0,5.211-13.93V30.815ZM48.27,15.029A15.567,15.567,0,0,1,58.7,18.976a12.905,12.905,0,0,1,4.338,9.494,11.853,11.853,0,0,1-.225,2.345H60.685a10.619,10.619,0,0,0-.8-6.949A11.972,11.972,0,0,0,54.843,18.6a13.691,13.691,0,0,0-7.452-1.656,13.426,13.426,0,0,0-7.14,2.555,17.851,17.851,0,0,0-1.783-1.1A15.668,15.668,0,0,1,48.27,15.029Zm0,6.137a8.558,8.558,0,0,0-4.718,1.4,14.315,14.315,0,0,0-1.345-1.46,10.649,10.649,0,0,1,6.063-1.841,10.944,10.944,0,0,1,4.456.95,9.986,9.986,0,0,1,3.541,2.64,8.861,8.861,0,0,1,1.9,3.791,8.418,8.418,0,0,1-.124,4.167H55.864a6.576,6.576,0,0,0,.425-2.345,7.007,7.007,0,0,0-2.354-5.159A8.453,8.453,0,0,0,48.27,21.167Zm5.445,7.3a4.565,4.565,0,0,1-.644,2.345H46.918a14.655,14.655,0,0,0-1.995-6.266,5.834,5.834,0,0,1,7.191.418A4.77,4.77,0,0,1,53.715,28.471Zm-27.3-9.619a16.1,16.1,0,0,1,3.218-.317A15.72,15.72,0,0,1,35.8,19.766a14.482,14.482,0,0,1,3.649,2.169,12.955,12.955,0,0,1,4.885,8.881H42.246a11.25,11.25,0,0,0-4.13-7.4,13.431,13.431,0,0,0-8.511-2.978H28.9a18.1,18.1,0,0,0-2.851-1.12c-.251-.076-.5-.147-.759-.211C25.66,19.015,26.04,18.928,26.42,18.851Zm11.134,12.04v-.076a12.916,12.916,0,0,0-.528-1.677l-.052-.082a7.649,7.649,0,0,0-3.721-3.583,8.734,8.734,0,0,0-5.373-.614,12.78,12.78,0,0,0-2.5-1.237,11.03,11.03,0,0,1,3.366-.809h.869A10.717,10.717,0,0,1,36.286,25.1a9.009,9.009,0,0,1,3.366,5.718H37.541A.15.15,0,0,1,37.554,30.892Zm-2.677-.076H32.7a10.943,10.943,0,0,0-2.208-3.734,5.8,5.8,0,0,1,2.445.976,5.13,5.13,0,0,1,1.655,1.908c.077.211.155.422.219.633A2.2,2.2,0,0,1,34.877,30.815ZM24.386,27.884a8.734,8.734,0,0,0-6.071-.559,7.922,7.922,0,0,0-4.748,3.49H11.25a9.45,9.45,0,0,1,3.723-4.141A10.827,10.827,0,0,1,20.6,25.118a12.55,12.55,0,0,1,1.429.082.61.61,0,0,0,.109,0,10.665,10.665,0,0,1,4.726,1.871,9.38,9.38,0,0,1,3.107,3.745H27.675A7.76,7.76,0,0,0,24.386,27.884Zm.071,2.931H16.734A5.513,5.513,0,0,1,18.5,29.734a5.946,5.946,0,0,1,4.181,0A5.513,5.513,0,0,1,24.457,30.815ZM13.072,22.726A17.821,17.821,0,0,1,20.6,20.85a18.117,18.117,0,0,1,2.15.147,16.069,16.069,0,0,1,1.828.358,13,13,0,0,0-2.69,1.471c-.412-.035-.837-.053-1.287-.053A13.536,13.536,0,0,0,13.118,25a11.663,11.663,0,0,0-4.6,5.815H6.333A13.575,13.575,0,0,1,13.072,22.726ZM41.834,52.5H32.18v2.345H45.7v2.345a3.424,3.424,0,0,1-.644,2.345H21.882a3.425,3.425,0,0,1-.644-2.345V54.849h3.218V52.5A23.674,23.674,0,0,1,9.4,46.706,19.767,19.767,0,0,1,2.613,33.16H64.328A19.8,19.8,0,0,1,57.3,46.905,23.761,23.761,0,0,1,41.834,52.5Z" transform="translate(0 -0.917)"/><path class="a" d="M11.591,11.1v-.076a12.861,12.861,0,0,0-.527-1.676,6.183,6.183,0,0,1,.515,1.676A.15.15,0,0,1,11.591,11.1Z" transform="translate(25.963 18.871)"/><path class="a" d="M10.651,17.5a1.234,1.234,0,0,0-1.287-1.173,1.178,1.178,0,1,0,0,2.346A1.234,1.234,0,0,0,10.651,17.5Z" transform="translate(18.954 35.238)"/></svg>