<svg xmlns="http://www.w3.org/2000/svg" width="66.935" height="41.14" viewBox="0 0 66.935 41.14"><defs><style>.a{fill:#fff;}</style></defs><path class="a" d="M16.937.745A20.8,20.8,0,0,0,5.274,6.923,17.327,17.327,0,0,0,1.15,14.835a4.161,4.161,0,0,1-.683,1.6c-.464.533-.512.822-.439,4.6C.076,24.88.1,25.1.686,25.88c.317.467.708.844.83.844.146,0,.244,1.133.244,2.889,0,2.933.22,3.889.952,4.111.293.067.488.6.683,1.778a7.807,7.807,0,0,0,4.05,5.823c.732.378,2.342.4,26.035.4s25.3-.022,26.035-.4a7.737,7.737,0,0,0,4-5.712,3.323,3.323,0,0,1,1-2.222c.683-.622.683-.645.683-3.6,0-2.711.049-2.978.488-3.222,1.1-.644,1.269-1.422,1.245-5.711-.049-3.645-.1-4.067-.512-4.467a1.6,1.6,0,0,1-.488-.911,14.794,14.794,0,0,0-1.61-4.756,18.974,18.974,0,0,0-9.2-8.423C51.17.567,52.073.634,34.212.589,25.428.567,17.644.634,16.937.745ZM49.95,3.723A16.7,16.7,0,0,1,61.93,13.079c.317.778.585,1.489.585,1.533,0,.067-13.054.111-29.036.111s-29.036-.044-29.036-.111c0-.044.268-.756.61-1.578a15.516,15.516,0,0,1,8.052-8c3.562-1.622,3.465-1.6,20.252-1.622C45.509,3.39,48.559,3.456,49.95,3.723Zm13.884,17a16.865,16.865,0,0,1,0,3.356,4.538,4.538,0,0,1-2.708.867c-1.318,0-2.294-.644-3.465-2.267a6.513,6.513,0,0,0-6.417-3.022c-2.342.156-3.611.911-5.148,3.045-.879,1.178-1.415,1.711-2.074,1.956a3.732,3.732,0,0,1-4.685-1.933,6.636,6.636,0,0,0-5.856-3.111c-2.684,0-4.392.956-6,3.356-1.732,2.622-4.636,2.645-6.271.067a6.58,6.58,0,0,0-3.221-2.889c-3.1-1.333-7.1-.133-8.662,2.578a4.128,4.128,0,0,1-5.2,1.933l-.9-.356V22.658c0-.911-.073-2.4-.146-3.334l-.171-1.711H63.663ZM17.278,23.191a6.438,6.438,0,0,1,1,1.156,8.6,8.6,0,0,0,3.1,2.889,5.936,5.936,0,0,0,2.952.489,5.936,5.936,0,0,0,2.952-.489,8.594,8.594,0,0,0,3.1-2.889,3.4,3.4,0,0,1,2.757-1.8A3.2,3.2,0,0,1,36.432,24.1a9.224,9.224,0,0,0,3.245,3.134,5.937,5.937,0,0,0,2.952.489,5.424,5.424,0,0,0,3.245-.667,6.807,6.807,0,0,0,3-2.956,3.754,3.754,0,0,1,4.758-1.178,5.259,5.259,0,0,1,1.513,1.645,6.774,6.774,0,0,0,5.831,3.267h1.049v3.111H4.932V27.9l1.537-.111a6.616,6.616,0,0,0,5.563-3.467,3.142,3.142,0,0,1,3.343-1.756A2.943,2.943,0,0,1,17.278,23.191Zm43.188,11.69a5.427,5.427,0,0,1-2.1,3.556l-.805.511H9.4l-.805-.511a5.428,5.428,0,0,1-2.1-3.556l-.146-1.045H60.613Z" transform="translate(0 -0.585)"/></svg>