<svg xmlns="http://www.w3.org/2000/svg" width="69.456" height="60.25" viewBox="0 0 69.456 60.25"><defs><style>.a{fill:none;stroke:#fff;stroke-linejoin:round;stroke-width:2px;}</style></defs><g transform="translate(1 1)"><path class="a" d="M2,60.286,33.356,2.036c18.371,4.254,30.094,15.439,36.1,32.586Z" transform="translate(-2 -2.036)"/><path class="a" d="M10.434,3.77a71.668,71.668,0,0,1,32.7,29.261" transform="translate(17.792 2.033)"/><path class="a" d="M13.552,13.093a3.775,3.775,0,0,0,4.457-2.653A3.448,3.448,0,0,0,15.1,6.379a3.774,3.774,0,0,0-4.457,2.653A3.448,3.448,0,0,0,13.552,13.093Z" transform="translate(18.084 7.983)"/><path class="a" d="M12.21,20.221a5.033,5.033,0,0,0,5.943-3.537,4.6,4.6,0,0,0-3.884-5.413,5.033,5.033,0,0,0-5.943,3.537A4.6,4.6,0,0,0,12.21,20.221Z" transform="translate(12.593 19.406)"/><path class="a" d="M15.173,14.74a2.517,2.517,0,0,0,2.972-1.768A2.3,2.3,0,0,0,16.2,10.266a2.517,2.517,0,0,0-2.972,1.768A2.3,2.3,0,0,0,15.173,14.74Z" transform="translate(24.23 17.162)"/></g></svg>