<svg xmlns="http://www.w3.org/2000/svg" width="34.102" height="47.855" viewBox="0 0 34.102 47.855"><defs><style>.a{fill:#6c7d87;}.b{fill:#566a75;}.c{fill:#dd9a5e;}.d{fill:#d18c54;}.e{fill:#4c4846;}.f{fill:#3d3938;}.g{fill:#edae6b;}</style></defs><g transform="translate(-30.266 0)"><path class="a" d="M64.327,296.62c-.034-.169-2.089-10.5-2.112-10.6a4,4,0,0,0-1.9-2.7,4.556,4.556,0,0,0-1.3-.529L52,280.34a1.024,1.024,0,0,1-.692-.968v-2.146a8.805,8.805,0,0,1-8,.038v2.108a1.024,1.024,0,0,1-.692.968l-2.881.988h0l-4.122,1.461-.542.16a4.148,4.148,0,0,0-2.308,2.032c-.33.669-.232.434-1.833,8.469-.593,3.069-.724,3.293-.649,3.978a2.007,2.007,0,0,0,2.231,1.74h29.6A2.03,2.03,0,0,0,64.327,296.62Z" transform="translate(0 -251.313)"/><path class="b" d="M32.712,347.322l2.112-11.565a4.031,4.031,0,0,1,1.744-2.6c-1.773.628-1.223.377-1.768.61a4.041,4.041,0,0,0-2.22,2.367c-.157.447-.055.054-1.644,8.02-.593,3.069-.723,3.293-.649,3.978a2.007,2.007,0,0,0,2.231,1.74h2.408A2,2,0,0,1,32.712,347.322Z" transform="translate(-0.001 -302.015)"/><path class="c" d="M36.894,454.868H32.537a2,2,0,0,1-2.247-2.141,31.02,31.02,0,0,1,.665-3.577l.034-.171h5.9Z" transform="translate(-0.021 -407.013)"/><path class="b" d="M34.123,347.322l-2.112-11.565a4.031,4.031,0,0,0-1.744-2.6c1.773.628,1.223.377,1.768.61a4.041,4.041,0,0,1,2.22,2.367c.157.447.055.054,1.644,8.02.593,3.069.723,3.293.649,3.978a2.007,2.007,0,0,1-2.231,1.74H31.91A2,2,0,0,0,34.123,347.322Z" transform="translate(27.733 -302.015)"/><path class="c" d="M30.289,454.868h4.357a2,2,0,0,0,2.247-2.141,31.021,31.021,0,0,0-.665-3.577l-.034-.171h-5.9Z" transform="translate(27.474 -407.013)"/><path class="d" d="M33.343,448.979H30.99l-.034.171a30.832,30.832,0,0,0-.665,3.577,2,2,0,0,0,2.247,2.141h2.408c-1.565,0-2.278-.823-2.247-2.141C32.7,452.574,32.759,452.254,33.343,448.979Z" transform="translate(-0.022 -407.014)"/><path class="d" d="M31.893,448.979h2.352l.034.171a30.831,30.831,0,0,1,.665,3.577,2,2,0,0,1-2.247,2.141H30.29c1.565,0,2.278-.823,2.247-2.141C32.533,452.574,32.476,452.255,31.893,448.979Z" transform="translate(29.344 -407.014)"/><path class="c" d="M169.87,273.671c0,5.987,0-.682,0,4.034h0v.144a2.229,2.229,0,0,0,1.52,2.114,8.115,8.115,0,0,0,4.953,0,2.228,2.228,0,0,0,1.52-2.114V277.7h0c0-.938,0-3.532,0-4.034A8.385,8.385,0,0,1,169.87,273.671Z" transform="translate(-126.556 -248.091)"/><path class="d" d="M172.28,281.225h0c0-5.013,0-3.342,0-3.692a8.776,8.776,0,0,1-2.408-.861c0,5.987,0-.962,0,3.753h0v.144a2.229,2.229,0,0,0,1.52,2.114,7.416,7.416,0,0,0,1.416.322A2.851,2.851,0,0,1,172.28,281.225Z" transform="translate(-126.555 -250.811)"/><path class="b" d="M93.949,423.7a.722.722,0,0,0-.722.722v7.53h1.445v-7.53A.722.722,0,0,0,93.949,423.7Z" transform="translate(-57.076 -384.099)"/><path class="b" d="M93.949,423.7a.722.722,0,0,0-.722.722v7.53h1.445v-7.53A.722.722,0,0,0,93.949,423.7Z" transform="translate(-36.955 -384.099)"/><path class="e" d="M99.05.056A11.558,11.558,0,0,0,87.577,11.61v4.379h23.112V9.438c0-4.475-2.753-5.505-2.753-5.505C104.513-.288,99.055.056,99.055.056" transform="translate(-51.954 -0.044)"/><path class="f" d="M100.606.081a11.594,11.594,0,0,0-13.025,11.03c-.018.468-.006.293-.01,4.834h2.753V11.566A11.557,11.557,0,0,1,100.606.081Z" transform="translate(-51.949 0)"/><g transform="translate(35.446 14.429)"><path class="c" d="M88.71,154.509a2.075,2.075,0,1,0,0,3.691Z" transform="translate(-85.687 -154.367)"/><path class="c" d="M304.4,154.509a2.075,2.075,0,1,1,0,3.691Z" transform="translate(-283.96 -154.367)"/></g><g transform="translate(35.441 15.567)"><path class="d" d="M85.852,166.548c-.847,1.607.936,3.362,2.811,2.694v-1.7A2.312,2.312,0,0,1,85.852,166.548Z" transform="translate(-85.635 -166.548)"/><path class="d" d="M304.4,167.545v1.7c1.875.668,3.658-1.087,2.811-2.694A2.6,2.6,0,0,1,304.4,167.545Z" transform="translate(-283.955 -166.548)"/></g><path class="g" d="M134.229,94.489a.437.437,0,0,1,.4.434c0,7.412,0,6.852-.012,7.2a8.8,8.8,0,0,1-17.587-.1c-.013-.331-.007-4.17-.007-4.159a2.829,2.829,0,0,1,3.24-2.8A12.386,12.386,0,0,0,130.3,92.369a.727.727,0,0,1,1.111.2A3.557,3.557,0,0,0,134.229,94.489Z" transform="translate(-78.644 -83.575)"/><path class="c" d="M119.436,129.851c-.011-.284-.009-5.484-.008-6.953a2.826,2.826,0,0,0-2.408,2.794c0-.011-.005,3.828.007,4.159a8.843,8.843,0,0,0,10.077,8.381A8.785,8.785,0,0,1,119.436,129.851Z" transform="translate(-78.644 -111.411)"/></g></svg>